<svg width="1060" height="354" viewBox="0 0 1060 354" fill="none" xmlns="http://www.w3.org/2000/svg">
<g filter="url(#filter0_d_1_3)">
<path d="M711.541 276.253C711.94 271.002 710.486 266.388 707.607 262.023C704.672 257.578 703.205 252.776 705.416 247.481L705.766 246.276C707.065 241.505 706.471 237.097 702.944 233.438C700.297 230.684 699.572 227.525 700.346 223.891C701.369 219.115 701.033 214.687 698.155 210.405C695.664 206.689 695.233 202.587 697.213 198.191C698.886 194.501 699.979 190.516 701.039 186.589C701.864 183.529 701.87 180.289 700.715 177.311C699.778 174.882 700.022 172.677 700.603 170.286C701.221 167.764 701.565 165.16 701.902 162.581C702.164 160.596 701.503 158.841 700.022 157.479C698.074 155.694 697.4 153.471 697.724 150.942C698.112 148.038 698.673 145.166 697.157 142.369C696.888 141.882 697.045 141.133 697.088 140.508C697.463 135.463 696.189 130.767 694.209 126.196C693.073 123.561 692.593 120.789 692.892 117.923C693.467 112.36 693.117 106.809 692.15 101.358C691.107 95.4952 689.464 89.7502 688.228 83.9182C687.797 81.9012 687.517 79.7792 687.642 77.7372C687.897 73.5722 688.397 69.4142 688.953 65.2682C689.628 60.2722 690.851 55.4272 693.005 50.8192C695.072 46.3612 696.989 41.8282 698.906 37.3012C699.593 35.6652 700.179 33.9732 700.592 32.2492C701.092 30.1762 701.067 28.0842 699.812 26.1992C698.145 23.6952 695.947 23.2272 693.761 25.3252C691.982 27.0542 690.296 29.0282 689.103 31.1882C686.756 35.4342 684.058 39.3672 680.805 42.9582C678.538 45.4622 677.571 48.4472 677.433 51.8562C677.177 58.4812 675.665 64.6882 670.865 69.7012C669.497 71.1312 668.299 72.7422 667.194 74.3902C666.082 76.0262 664.915 77.7182 664.283 79.5602C662.779 83.8992 661.143 88.2702 660.375 92.7782C659.357 98.7782 657.783 104.586 656.191 110.443C654.868 115.307 652.607 119.303 649.198 122.813C647.038 125.036 645.526 127.671 644.584 130.58C643.453 134.064 642.467 137.586 641.524 141.127C641.099 142.738 640.805 144.405 640.65 146.059C639.925 153.976 639.35 161.907 638.546 169.805C638.352 171.678 638.522 173.758 637.222 175.456L636.667 174.97C634.594 172.116 634.344 168.813 634.025 165.441C633.288 157.536 632.483 149.65 632.801 141.689C632.895 139.285 632.801 136.875 632.875 134.471C632.938 132.504 632.114 131.043 630.627 129.869C630.06 129.426 629.473 129.014 628.816 128.526C628.935 127.046 629.053 125.591 629.167 124.143C629.435 120.609 628.954 117.325 626.668 114.359C625.851 113.31 625.495 111.649 625.508 110.275C625.538 106.729 625.869 103.176 626.152 99.6352C626.37 96.7002 625.314 94.3152 623.266 92.2992C622.742 91.7932 622.061 91.3812 621.686 90.7882C621.1 89.8642 620.25 88.7962 620.307 87.8352C620.487 84.4072 620.787 80.9542 621.455 77.5952C621.979 74.9472 623.184 72.4432 623.94 69.8332C625.301 65.1122 626.724 60.4112 627.798 55.6222C628.348 53.1742 627.13 51.4632 625.069 50.5342C623.096 49.6282 621.447 49.8462 619.868 52.0012C617.151 55.6982 614.61 59.5502 612.3 63.5022C611.282 65.2562 610.864 67.4042 610.408 69.4282C609.652 72.8252 608.841 76.2032 606.306 78.7752C603.564 81.5602 602.066 84.9502 601.092 88.6532C600.936 89.2652 600.622 89.8392 600.261 90.7262C598.55 86.3182 597.851 85.8872 594.142 86.7732C594.01 86.1742 593.961 85.5432 593.73 84.9872C592.7 82.4962 590.74 82.1092 588.891 84.1002C588.117 84.9252 587.33 85.8732 586.949 86.9162C585.519 90.8442 584.077 94.7782 582.959 98.7922C581.848 102.819 581.286 106.997 580.206 111.03C577.821 119.909 576.066 128.975 572.238 137.43C571.77 138.46 571.594 139.634 571.383 140.758C570.272 146.809 570.441 152.828 571.72 158.841C573.25 165.996 573.101 173.189 571.983 180.383C571.271 185.034 568.543 188.624 565.602 192.065C560.944 197.503 558.908 203.759 559.489 210.921C559.769 214.405 560.507 217.716 561.911 220.919C564.348 226.45 565.246 232.113 563.042 237.977C562.673 238.952 562.405 239.989 562.28 241.018C561.949 243.616 561.849 246.164 563.029 248.705C563.698 250.16 563.997 251.908 564.009 253.531C564.053 259.919 563.903 266.301 563.89 272.688C563.884 273.818 564.096 274.98 564.403 276.073C564.834 277.659 565.757 278.958 567.451 279.35C569.285 279.775 570.41 278.576 571.358 277.285C573.056 274.968 574.255 272.407 574.543 269.528C575.068 264.352 576.767 259.57 578.789 254.83C579.701 252.671 580.076 250.191 580.231 247.831C580.531 243.198 579.513 238.678 578.551 234.169C578.314 233.064 578.14 231.858 578.332 230.766C579.288 225.39 581.343 220.413 585.433 216.743C588.798 213.702 590.197 210.267 589.617 205.885C589.485 204.842 589.566 203.768 589.347 202.75C588.655 199.597 589.067 196.556 589.772 193.446C590.734 189.169 591.82 184.867 592.176 180.515C592.769 173.289 594.005 166.222 595.704 159.203C596.89 154.332 596.909 149.499 595.173 144.685C593.487 140.002 593.637 135.257 595.267 130.518C596.079 128.151 596.528 125.666 597.308 123.287C598.17 120.652 598.77 117.855 601.218 115.176C601.417 116.694 601.692 117.674 601.649 118.629C601.48 121.764 601.261 124.892 600.949 128.002C600.556 132.042 601.418 135.507 605.002 137.874C606.594 138.916 607.412 140.422 607.719 142.27C608.036 144.125 608.967 145.873 610.559 146.604C614.33 148.346 614.961 151.586 615.311 155.102L615.405 156.038C616.148 162.294 617.247 168.395 620.356 174.064C621.612 176.35 621.781 179.253 622.335 181.894C622.71 183.624 622.554 185.529 623.216 187.121C624.521 190.286 624.303 193.428 623.972 196.686C623.291 203.624 625.164 207.632 631.308 208.85C632.826 209.149 633.675 210.074 633.819 211.641C633.975 213.196 634.18 214.75 634.381 216.305C634.905 220.364 635.537 224.41 638.071 227.819C639.551 229.811 641.442 230.961 644.035 230.361C646.17 229.861 647.937 227.682 648.174 225.029C648.399 222.631 648.593 220.208 648.455 217.817C648.08 211.298 649.992 205.448 653.095 199.828C653.982 198.223 654.681 196.375 654.93 194.563C655.38 191.26 655.536 187.902 655.636 184.56C655.817 178.529 656.904 172.891 661.755 168.676L662.386 167.976C666.744 162.007 669.211 155.557 667.681 148.014C666.513 142.22 667.519 136.575 669.061 130.993C669.361 129.9 669.81 128.845 670.198 127.771C670.728 129.058 670.728 130.207 670.728 131.355C670.735 134.902 671.821 137.918 674.874 140.035C675.637 140.565 676.28 141.29 676.897 142.001C678.409 143.756 679.213 145.735 678.552 148.083C677.94 150.299 677.322 152.51 676.647 154.714C675.336 159.004 673.419 163.212 672.789 167.595C671.896 173.814 672.202 180.139 674.625 186.152C675.118 187.395 675.618 188.724 675.699 190.042C675.861 193.071 675.948 196.124 675.755 199.146C675.087 209.336 677.865 218.377 684.453 226.208C686.164 228.231 686.313 230.36 685.677 232.927C684.809 236.448 684.229 240.076 683.953 243.692C683.648 247.576 685.252 250.623 689.123 252.109L689.66 252.672C689.66 254.645 689.679 256.736 689.648 258.821C689.617 261.593 690.534 263.985 692.632 265.802C694.28 267.239 695.973 268.693 697.839 269.817C699.744 270.972 700.318 272.452 700.043 274.55C699.781 276.517 699.682 278.502 699.551 280.488C699.445 282.154 699.863 283.622 701.474 284.465C702.966 285.245 704.059 284.34 705.176 283.534L705.781 283.497L706.181 283.935C708.01 285.777 709.19 286.088 710.808 285.164C712.418 284.24 712.755 282.892 712.168 280.544C711.817 279.145 711.435 277.659 711.541 276.253Z" fill="#FF4ECD"/>
<path d="M211.693 288.33C211.081 284.453 209.496 280.956 206.723 278.046C203.389 274.519 201.353 270.442 201.041 265.483C200.679 259.788 197.414 256.035 192.244 254.037C190.545 253.376 189.34 252.483 188.529 250.934C187.561 249.085 186.456 247.288 185.651 245.371C184.627 242.942 182.841 241.307 180.437 240.775C177.633 240.144 176.397 238.44 175.779 235.936C175.548 235.018 175.236 234.119 175.098 233.188C174.156 227.188 170.877 222.792 165.732 219.757C164.09 218.783 163.272 217.428 162.498 215.748C160.924 212.345 159.488 208.717 157.165 205.87C153.855 201.817 149.691 198.695 143.809 201.018L143.066 200.812C142.355 199.32 141.711 197.659 140.812 196.147C138.614 192.482 137.178 192.158 133.494 194.281L132.989 194.312C132.67 193.65 132.327 192.919 131.965 192.189C130.704 189.667 129.573 187.062 128.138 184.64C126.851 182.466 125.297 180.494 122.256 180.637C121.482 180.674 120.676 179.95 119.309 179.308C120.839 178.245 121.631 177.54 122.543 177.091C125.384 175.673 127.532 173.612 128.606 170.615C129.093 169.266 129.999 168.517 131.216 168.142C132.708 167.686 134.244 167.281 135.793 167.143C139.964 166.768 142.73 164.283 144.759 161.011C146.851 157.639 148.393 153.943 149.043 149.959C149.374 147.898 149.736 146.025 151.859 144.771C152.864 144.178 153.489 142.61 153.857 141.362C154.307 139.776 154.501 138.058 154.482 136.41C154.451 133.544 155.169 131.147 157.229 129.011C161.001 125.134 162.068 120.338 161.188 115.074C160.476 110.822 160.027 106.657 161.607 102.405C163.486 97.3722 162.287 92.8952 157.985 89.5052C156.668 88.4682 156.18 87.3262 156.405 85.7342C156.542 84.8032 156.636 83.8602 156.679 82.9182C156.829 79.6902 157.016 76.4622 157.035 73.2282C157.035 72.3412 156.722 71.2922 156.192 70.5862C152.452 65.6222 149.448 64.1052 144.172 65.9472C143.085 66.3282 141.992 66.7472 140.869 66.9212C139.052 67.2202 138.409 66.6342 138.215 64.8042C138.078 63.4552 138.059 62.0822 137.784 60.7582C137.234 57.9802 135.63 56.6312 132.776 56.4812C131.739 56.4242 130.672 56.4752 129.654 56.6752C126.501 57.2932 123.791 56.7692 121.231 54.5952C119.433 53.0532 117.21 51.9792 115.081 50.8682C111.378 48.9322 107.563 47.2092 103.885 45.2292C101.613 43.9932 99.259 43.3432 96.704 43.2502C95.455 43.2002 94.169 43.3752 92.945 43.1562C88.887 42.4262 85.608 43.9062 82.499 46.3352C79.034 49.0392 75.506 51.6732 71.884 54.1652C67.126 57.4432 61.975 59.0852 56.174 57.2312L54.95 56.9812C52.59 56.2382 50.46 56.8502 48.294 57.8612C44.804 59.4972 41.9 61.8322 39.421 64.7232C37.966 66.4282 36.486 67.0772 34.238 66.0472C32.24 65.1412 31.085 65.5162 30.136 67.0842C27.864 70.8372 26.396 77.0372 31.11 81.5072C31.872 82.2252 32.634 82.9442 33.44 83.6112C36.706 86.3152 37.148 89.7112 35.943 93.5512C35.419 95.2432 34.838 96.9422 34.526 98.6772C33.258 105.826 33.815 112.47 39.909 117.572C41.182 118.634 42.269 119.964 43.287 121.287C45.11 123.654 46.484 126.17 45.654 129.386C45.029 131.808 44.761 134.318 44.149 136.735C43.63 138.777 43.63 140.618 44.836 142.442C45.267 143.091 45.573 144.021 45.498 144.771C45.299 146.731 45.717 148.498 46.56 150.234C47.466 152.088 47.54 153.931 46.954 155.991C45.992 159.35 46.361 162.622 48.727 165.45C49.738 166.655 50.65 167.929 51.661 169.134C53.166 170.92 53.909 172.812 53.203 175.21C52.404 177.92 52.822 180.505 54.046 183.108C56.644 188.646 58.33 194.516 58.355 200.654C58.361 204.133 58.692 207.772 56.607 211.001C54.846 213.718 55.851 216.458 57.649 218.53C60.147 221.415 61.315 224.805 62.563 228.253C63.15 229.883 63.013 231.27 62.095 232.712C59.341 237.051 59.191 241.709 60.309 246.605C61.096 250.045 62.644 253.105 64.517 256.002C65.853 258.068 66.858 260.204 67.233 262.614C67.546 264.662 68.357 266.379 69.981 267.74C70.493 268.171 70.992 268.896 71.048 269.539C71.385 272.947 72.197 276.308 71.217 279.805C70.218 283.357 71.042 285.243 74.283 287.172C76.456 288.464 77.255 290.301 77.38 292.598C77.474 294.371 77.355 296.164 77.443 297.937C77.618 301.071 78.573 303.9 81.071 305.999C82.201 306.948 83.419 307.922 85.017 307.247C86.646 306.573 87.309 305.112 87.34 303.451C87.383 301.472 87.29 299.473 87.159 297.494C86.934 294.042 87.059 290.764 90.606 288.815L91.068 288.396C94.79 284.707 95.177 280.834 92.592 276.251C90.694 272.879 89.826 269.301 91.524 265.462C92.192 263.95 92.749 262.283 92.867 260.648C92.973 259.049 92.829 257.232 92.137 255.834C90.794 253.137 89.028 250.639 87.36 248.104C84.744 244.133 83.264 240.082 86.08 235.56L86.467 234.705C89.139 229.829 89.376 224.958 86.355 220.132C85.431 218.657 85.312 217.241 86.349 215.755C88.278 213.02 87.897 210.285 86.392 207.487C85.499 205.839 84.725 204.103 84.1 202.342C82.901 198.97 83.988 196.921 88.003 195.498C89.595 197.233 91.312 199.2 93.123 201.08C95.814 203.864 99.161 204.938 102.858 203.884C105.643 203.091 107.291 204.246 108.646 206.294C110.088 208.48 111.312 210.802 112.792 212.95C113.972 214.654 115.258 216.334 116.757 217.758C118.324 219.263 119.548 219.063 121.115 217.551C124.025 214.718 124.649 214.667 127.428 217.558C128.952 219.163 130.594 220.305 132.892 220.032C134.609 219.819 135.702 220.537 136.382 222.042C137.837 225.276 139.398 228.467 140.734 231.745C142.408 235.866 145.174 237.165 149.164 235.479C149.738 235.236 150.301 234.955 150.887 234.717C153.141 233.806 153.372 233.761 154.665 235.946C156.257 238.637 157.712 241.423 159.048 244.257C160.84 248.036 163.787 250.514 167.765 251.213C170.187 251.644 171.461 252.781 172.435 254.747C172.941 255.778 173.553 256.765 174.059 257.795C176.407 262.559 179.067 267.005 184.555 268.773L185.604 269.447C188.308 271.32 190.862 273.261 191.043 277.008C191.23 280.731 192.753 284.089 194.14 287.486C195.089 289.803 196.469 291.67 198.705 292.869C200.522 293.849 201.758 295.31 202.482 297.284C203.175 299.144 204.012 300.961 204.892 302.734C206.122 305.195 208.357 306.725 209.925 306.312C211.555 305.881 212.416 304.089 212.335 301.011C212.304 299.662 211.611 298.164 212.004 296.995C213.011 294.005 212.143 291.177 211.693 288.33ZM116.428 155.163C115.779 155.575 114.954 155.744 114.186 155.913C112.481 156.312 110.702 156.481 109.047 157.031C107.174 157.656 105.319 158.442 103.596 159.416C102.272 160.172 100.992 161.177 100.037 162.344C98.663 164.036 97.046 165.21 94.835 166.097C94.085 165.467 93.368 164.723 92.525 164.155C88.828 161.663 86.593 161.483 83.64 163.699C82.834 164.305 81.891 164.711 80.299 165.61C80.599 163.637 80.68 162.351 81.011 161.133C81.317 160.034 81.941 159.029 82.347 157.955C83.596 154.658 83.215 153.278 80.205 151.367C78.969 150.587 78.5 149.687 78.532 148.302C78.582 146.21 78.551 144.112 78.538 142.014C78.526 138.923 77.295 136.613 74.411 135.22C72.475 134.283 72.307 133.609 72.782 131.461C73.081 130.15 73.331 128.801 73.481 127.459C74.012 122.938 71.752 119.791 68.43 117.112C67.862 116.656 67.281 115.788 67.3 115.12C67.375 111.917 66.307 108.714 67.563 105.498C68.356 103.456 67.063 101.82 65.677 100.502C63.504 98.4542 63.248 95.9692 63.785 93.2842C64.228 91.0242 65.265 90.3432 67.532 90.6552C68.15 90.7492 68.8 90.7612 69.392 90.9362C74.538 92.4912 78.59 90.5372 82.174 87.0152C82.767 86.4282 83.391 85.8592 83.972 85.2602C85.939 83.2242 88.368 82.5062 91.116 82.7942C92.889 82.9752 94.637 83.3992 96.405 83.4932C98.69 83.6182 100.976 83.5312 103.523 83.5312C108.518 92.6032 110.66 93.6902 118.353 90.8922C120.201 92.7592 122.28 94.4522 120.925 97.7482C120.307 99.2662 120.869 100.883 121.949 102.15C123.435 103.905 124.921 105.666 126.551 107.283C127.656 108.388 129.005 109.25 130.273 110.243C129.461 111.585 129.074 112.297 128.618 112.953C126.764 115.632 126.395 117.505 128.412 119.815C131.197 122.993 129.736 126.34 129.573 129.681L129.18 130.505C127.195 132.741 125.171 134.957 123.192 137.199C121.232 139.416 120.645 142.188 120.195 144.979C119.933 146.627 119.84 148.308 119.577 149.962C119.231 152.103 118.326 153.976 116.428 155.163Z" fill="#FF4ECD"/>
<path d="M1025.94 153.071C1024.47 152.36 1023.06 152.696 1021.69 153.29C1018.15 154.82 1014.56 156.262 1011.12 157.992C1008.9 159.103 1006.55 160.34 1004.88 162.101C999.636 167.633 992.094 169.643 986.474 174.533L985.912 174.807C980.879 176.836 975.939 179.165 970.776 180.795C966.274 182.213 961.647 183.067 958.613 187.376C958.538 186.253 958.637 185.341 958.949 184.504C959.874 182.038 959.449 179.765 958.107 177.616C957.114 176.018 955.984 174.501 954.998 172.896C954.522 172.128 953.935 171.229 953.948 170.404C953.999 168.35 953.087 166.858 951.938 165.284C951.201 164.254 950.595 162.862 950.558 161.619C950.364 155.144 950.395 148.668 950.27 142.2C950.207 138.941 948.803 136.411 945.944 134.676C945.113 134.17 944.182 133.296 943.939 132.422C942.203 126.096 938.394 120.42 938.107 113.646C938.069 112.928 937.857 112.191 937.601 111.517C935.54 106.147 933.561 100.746 931.32 95.4582C930.396 93.2722 928.96 91.2682 927.554 89.3262C927.017 88.6012 925.694 87.7342 925.081 87.9522C924.183 88.2582 923.183 89.4072 923.002 90.3442C922.678 92.0492 922.871 93.8592 922.939 95.6332C923.114 101.047 923.333 106.473 923.544 111.98C920.135 112.742 919.311 115.015 919.504 117.737C919.767 121.378 920.191 124.999 920.604 128.62C920.841 130.693 921.372 132.742 921.434 134.814C921.547 138.891 921.478 142.981 921.409 147.058C921.335 151.629 922.077 156.05 924.045 160.171C925.681 163.629 926.698 167.201 926.867 171.01C926.961 172.99 927.067 174.982 927.005 176.962C926.948 178.922 927.66 180.464 929.165 181.608C930.214 182.401 931.413 182.993 933.155 184.043C931.794 188.981 930.538 194.046 928.99 199.028C927.511 203.811 925.505 208.4 926.874 213.671C927.497 216.05 926.542 217.025 924.169 217.842C922.69 218.355 921.142 218.686 919.681 219.253C915.89 220.732 912.031 222.088 908.385 223.887C905.244 225.442 905.063 227.433 907.285 230.174L907.766 230.867L907.404 231.454C906.698 231.891 905.974 232.309 905.231 232.69C900.492 235.144 896.665 238.678 893.286 242.724C890.995 245.471 890.957 247.32 892.818 250.123C894.985 253.376 894.934 254.463 892.069 257.053C888.585 260.213 885.012 263.28 881.428 266.32C879.805 267.7 878.431 269.18 877.682 271.241C877.432 271.933 876.827 272.764 876.184 272.996C872.387 274.375 870.014 277.191 868.166 280.582C866.523 283.604 864.326 286.064 861.254 287.657C859.593 288.511 857.782 289.093 856.152 290.005C848.865 294.082 842.883 299.826 836.926 305.546C835.558 306.858 834.753 308.837 833.96 310.629C833.129 312.483 832.731 314.469 834.652 316.061C836.27 317.397 838.199 317.404 840.491 316.055L841.771 315.156C846.016 311.591 850.194 307.951 854.508 304.472C856.108 303.179 857.905 301.918 859.821 301.282C863.568 300.033 867.445 299.14 871.316 298.272C875.5 297.323 879.14 295.612 882.175 292.427C886.208 288.181 890.48 284.16 894.669 280.058C895.337 279.409 896.056 278.753 896.849 278.279C899.558 276.643 901.537 274.32 902.674 271.466C904.685 266.396 908.031 262.275 911.497 258.21C913.052 256.38 914.774 254.676 916.223 252.758C917.142 251.547 917.984 250.131 918.347 248.668C919.495 244.147 922.08 240.839 925.927 238.316C931.259 234.807 936.491 231.179 941.799 227.627C944.121 226.078 945.82 224.049 947.081 221.551C947.874 219.984 948.886 218.486 950.011 217.131C953.239 213.228 957.378 210.818 962.268 209.381C970.11 207.077 975.685 201.92 979.213 194.608C980.138 192.698 981.542 191.405 983.241 190.369C984.389 189.657 985.644 189.082 986.912 188.608C990.596 187.221 993.731 185.03 996.677 182.451C998.402 180.94 1000.23 179.448 1002.23 178.38C1008.3 175.171 1013.66 171.012 1018.62 166.329C1021.51 163.607 1024.27 160.729 1026.96 157.812C1028.69 155.956 1028.2 154.164 1025.94 153.071Z" fill="#FF4ECD"/>
<path d="M515.941 209.58C514.199 205.409 512.65 201.231 512.931 196.567C513.125 193.351 512.85 190.111 512.969 186.889C513.063 184.285 513.163 181.637 513.743 179.115C514.773 174.644 516.128 170.236 517.421 165.827C518.027 163.773 517.896 161.825 516.559 160.177C514.661 157.823 514.455 155.188 515.098 152.466C515.898 149.119 516.972 145.829 517.859 142.5C518.177 141.308 518.539 140.053 518.477 138.841C518.383 136.775 517.565 134.863 515.517 134.021C513.331 133.115 511.377 133.958 509.878 135.638C508.848 136.794 507.774 138.061 507.218 139.479C506.231 141.989 505.526 144.63 504.876 147.259C503.609 152.41 502.459 157.599 501.255 162.763L500.837 163.943C498.377 167.739 497.522 172.01 496.947 176.4C496.654 178.678 495.448 180.178 493.307 181.445C490.21 183.288 487.325 185.629 484.746 188.157C482.298 190.55 480.338 193.44 478.178 196.119C478.24 194.29 478.141 192.434 478.459 190.662C479.57 184.505 480.857 178.373 482.049 172.217C482.642 169.145 483.286 166.06 483.673 162.957C483.866 161.34 483.842 159.567 483.38 158.025C482.805 156.12 481.644 154.353 479.302 154.21C477.073 154.06 475.55 155.277 474.475 157.12C474.113 157.751 473.794 158.419 473.519 159.093C470.772 165.906 468.043 172.724 465.121 179.999C464.147 175.553 462.33 172.324 457.341 173.468C455.593 170.564 455.162 167.548 454.569 164.595C454.095 162.253 452.977 160.305 451.347 158.601C450.086 157.283 448.488 157.283 446.976 157.839C445.434 158.414 444.397 159.519 444.397 161.392C444.397 162.947 444.154 164.501 444.041 166.062C443.853 168.653 443.541 171.251 443.529 173.842C443.523 176.552 443.685 179.281 443.997 181.978C444.465 186.012 441.999 188.66 439.888 191.87C438.846 189.746 437.803 188.036 437.141 186.181C436.691 184.939 436.891 183.485 436.604 182.167C436.148 180.131 435.461 178.151 434.999 176.116C434.475 173.787 434.05 171.433 433.65 169.091C433.457 167.955 433.513 166.788 433.307 165.663C432.308 160.231 430.753 154.899 430.734 149.298C430.728 147.549 430.478 145.745 430.029 144.053C429.516 142.149 428.099 141.143 426.65 141.474C424.796 141.905 422.935 142.529 421.936 144.308C420.925 146.119 419.982 147.998 419.27 149.946C418.52 152.001 418.077 154.167 417.516 156.29C417.129 157.776 416.298 158.694 414.65 158.613C411.634 158.476 410.117 160.367 409.043 162.796C408.288 164.52 407.751 166.343 406.876 168.004C404.572 172.418 403.991 176.908 405.896 181.61C406.545 183.214 406.695 184.85 406.09 186.499C404.01 192.174 403.011 198.256 399.64 203.458C398.972 204.488 398.385 205.736 398.285 206.936C398.11 208.965 397.636 211.482 398.566 213.005C400.246 215.709 400.565 218.394 400.483 221.341C400.458 221.959 400.546 222.608 400.69 223.208C401.177 225.131 402.688 226.504 404.342 226.592C406.165 226.679 407.289 225.743 407.97 223.382C408.475 221.659 409.081 220.067 410.424 218.756C411.986 217.219 412.317 215.196 411.548 213.217C410.93 211.594 411.398 210.389 412.291 209.152C412.966 208.222 413.771 207.355 414.302 206.356C414.814 205.376 415.357 204.257 415.351 203.202C415.32 199.681 417.211 197.171 419.247 194.442C419.959 194.985 420.384 195.504 420.927 195.697C423.418 196.552 424.304 198.619 424.998 200.848C425.978 204.045 426.734 207.324 427.958 210.42C429.631 214.685 431.642 218.813 433.54 222.996L434.314 223.975C435.351 225.074 436.568 225.373 438.023 224.88C439.94 224.249 441.089 222.944 441.102 220.971C441.114 216.801 440.971 212.623 440.858 208.447C440.795 206.111 440.64 203.769 440.515 201.072C442.719 202.247 443.587 203.583 443.4 205.593C443.312 206.524 443.475 207.491 443.331 208.409C442.763 212.017 445.11 213.997 447.471 215.952C448.376 216.695 449.5 216.708 450.362 215.908C452.598 213.823 454.789 211.687 454.359 208.172C454.24 207.261 454.215 206.268 454.44 205.387C455.308 202.009 454.99 198.762 453.672 195.577C453.234 194.528 453.042 193.523 453.697 192.243C455.22 193.63 456.806 194.609 457.737 196.027C459.929 199.324 461.864 202.796 463.775 206.267C465.286 209.008 466.566 211.868 468.033 214.634C468.801 216.076 469.938 217.218 471.748 217.05C473.584 216.875 474.814 215.889 475.326 214.028C475.644 212.861 476.113 211.737 476.575 210.42L476.981 210.869L477.106 211.793C477.361 216.064 479.678 218.693 483.593 220.136C484.96 220.635 486.296 221.235 487.558 221.941C492.678 224.806 498.478 223.738 502.132 219.199C502.707 218.488 503.25 217.751 504.061 216.696C504.405 218.282 504.679 219.487 504.911 220.692C505.51 223.671 506.965 226.174 509.138 228.241C511.187 230.189 513.977 230.333 516.326 228.741C518.392 227.336 519.485 225.525 519.266 222.922C518.869 218.278 517.72 213.857 515.941 209.58ZM416.161 181.619C417.978 176.78 419.689 172.247 421.393 167.707L422.205 167.913C422.205 170.298 421.862 172.746 422.299 175.05C422.711 177.172 423.966 179.14 425.034 181.618H416.161V181.619ZM497.845 205.284C496.79 206.158 495.997 207.351 494.998 208.313C493.287 209.973 491.145 209.679 490.808 207.488C490.49 205.459 491.039 203.267 491.376 201.175C491.707 199.126 492.556 197.659 494.817 196.754C496.834 195.93 498.426 194.063 500.755 192.239C501.28 197.286 502.103 201.743 497.845 205.284Z" fill="#FF4ECD"/>
<path d="M368.144 112.972C365.902 113.347 363.555 113.534 361.475 114.371C358.978 115.37 356.499 116.7 354.376 118.348C348.025 123.281 341.819 128.413 335.606 133.527C334.064 134.801 332.721 136.368 330.492 136.156C328.569 135.975 327.014 136.731 325.591 137.873C323.305 139.696 321.095 141.632 318.784 143.43C317.722 144.255 316.574 145.029 315.344 145.566C313.278 146.478 311.117 147.183 308.969 147.982C307.527 145.441 307.408 142.787 308.819 140.034C309.394 138.923 309.881 137.718 310.081 136.5C310.674 132.916 311.479 129.344 309.381 125.835C308.751 124.786 308.963 123.219 308.85 121.877C308.7 120.116 309.094 118.105 308.388 116.632C307.201 114.178 307.638 112.036 308.419 109.745C308.718 108.852 309.044 107.965 309.287 107.06C310.368 103.07 310.717 99.0242 309.892 94.9472C308.987 90.4262 305.097 89.0152 301.4 91.8192C300.732 92.3192 300.07 92.8182 299.464 93.2742C295.755 92.3372 295.043 92.4372 293.414 94.8592C292.683 95.9462 292.146 97.3072 291.99 98.6002C291.784 100.454 292.065 102.359 292.027 104.244C291.922 110.089 292.427 116.052 291.446 121.746C290.173 129.126 288.499 136.507 285.752 143.569C284.928 145.685 284.678 148.027 284.166 150.262C283.685 152.391 283.335 154.558 282.698 156.638C281.705 159.922 280.431 163.125 279.445 166.422C279.102 167.584 279.083 168.926 279.233 170.151C279.483 172.173 280.688 173.622 282.635 174.271C284.39 174.858 285.67 173.947 286.738 172.667C287.999 171.137 289.223 169.576 290.515 168.059C291.071 167.409 291.733 166.853 292.35 166.254L293.093 166.672C292.656 168.445 292.188 170.225 291.782 172.018C291.476 173.329 291.064 174.659 291.045 175.983C290.982 180.853 290.295 185.493 287.692 189.782C286.606 191.581 285.987 194.028 287.836 195.601C289.853 197.325 289.616 199.204 289.247 201.265C288.092 207.752 286.918 214.227 285.694 220.696C285.482 221.82 285.138 222.944 284.651 223.974C282.965 227.515 282.391 231.317 281.542 235.094C280.637 239.153 282.522 241.726 284.926 244.28C286.381 245.835 287.842 245.997 289.309 244.479C290.733 243.012 292.206 241.289 292.806 239.409C294.042 235.513 295.372 231.692 297.12 228.002C297.557 227.065 297.8 226.017 298.019 225.005C298.874 221.016 299.68 217.019 300.51 213.028C301.29 209.251 302.078 205.479 302.97 201.215C306.304 202.776 307.915 200.591 309.651 198.518C310.038 198.044 310.775 197.863 311.524 197.456C312.224 199.316 312.579 201.021 313.466 202.383C314.353 203.737 315.789 204.742 316.956 205.923L317.674 206.946C320.309 211.823 323.225 216.632 323.612 222.339C323.855 225.885 325.623 228.421 328.239 230.519C331.336 232.998 333.091 236.344 333.865 240.053C334.939 245.136 337.499 249.388 340.546 253.372C341.901 255.144 342.544 256.936 342.781 259.072C342.975 260.82 343.131 262.707 343.906 264.229C345.204 266.784 346.197 269.312 346.409 272.209C346.559 274.326 348.232 275.587 350.218 275.618C352.428 275.643 353.509 274.724 354.046 272.321C354.139 271.922 354.152 271.497 354.221 270.873C357.362 270.923 358.916 270.092 359.316 267.682C359.865 264.385 360.221 261.038 358.929 257.773C358.311 256.218 357.805 254.62 357.281 253.028C354.209 243.686 351.256 234.34 350.744 224.374C350.612 222.02 349.339 219.547 348.034 217.48C345.817 213.984 344.143 210.444 343.482 206.279C342.583 200.646 340.279 198.667 334.665 197.731C332.555 197.375 330.644 196.725 329.314 194.839C326.298 190.563 323.195 186.348 320.148 182.108C319.717 181.508 319.386 180.853 319.012 180.222C317.994 178.536 317.045 176.806 315.958 175.17C313.76 171.842 314.978 167.927 318.75 166.478C321.097 165.585 323.458 164.749 325.799 163.85C332.467 161.296 337.094 156.963 338.824 149.739C339.835 145.55 342.002 141.996 346.373 140.348C347.253 140.017 348.034 139.443 348.889 139.056C353.254 137.039 356.394 133.792 358.436 129.477C359.229 127.81 360.521 126.73 361.908 125.556C364.855 123.065 367.572 120.299 370.306 117.564C371.13 116.746 371.661 115.684 370.999 114.436C370.386 113.271 369.393 112.759 368.144 112.972Z" fill="#FF4ECD"/>
<path d="M835.898 248.867C836.935 247.431 837.272 245.745 836.765 244.085C835.949 241.399 835.031 238.728 833.938 236.136C832.145 231.934 831.122 227.763 831.859 223.049C833.013 215.631 831.371 208.581 826.85 202.549C824.914 199.971 824.208 197.529 824.633 194.463C824.903 192.515 824.884 190.511 823.735 188.682C821.112 184.517 818.596 180.296 814.062 177.78C812.476 176.906 812.533 175.026 814.094 173.984C815.049 173.353 816.186 173.022 817.191 172.46C819.007 171.455 820.919 170.543 822.554 169.282C824.59 167.708 826.751 166.603 829.284 166.122C830.264 165.934 831.208 165.416 832.107 164.93C835.167 163.282 837.171 160.64 838.92 157.724C839.938 156.026 840.306 154.246 840.093 152.316C839.956 151.068 839.938 149.781 839.594 148.589C839.107 146.916 838.757 144.961 837.652 143.762C835.567 141.483 834.224 138.804 832.576 136.288C831.577 134.746 831.209 133.553 832.29 131.773C833.882 129.163 833.258 126.834 831.034 124.736C828.574 122.438 825.758 121.401 822.399 122.163C819.595 122.793 816.998 122.132 814.519 120.871C810.628 118.885 808.131 119.079 805.271 122.301C802.368 125.579 799.807 129.17 797.11 132.629C796.685 133.171 796.298 133.746 795.805 134.433C794.175 132.934 794.306 131.13 794.094 129.407C793.619 125.573 793.233 121.72 792.464 117.949C792.009 115.708 790.497 114.733 788.742 114.72C786.826 114.696 785.053 116.069 784.471 118.23C784.235 119.091 784.334 120.053 784.303 120.971C784.203 123.675 784.265 126.391 783.985 129.082C783.454 134.271 782.318 139.429 782.187 144.624C782.049 150.325 781.212 155.838 780.001 161.377C779.595 163.256 779.808 165.298 779.932 167.258C780.089 169.781 781.593 171.423 783.76 172.615C786.457 174.089 787.101 175.919 785.946 178.846C785.302 180.501 784.416 182.056 783.773 183.717C782.668 186.565 782.486 189.498 784.016 192.221C785.67 195.175 785.721 198.009 784.79 201.244C784.06 203.791 783.76 206.657 784.103 209.272C784.545 212.645 784.577 215.929 784.171 219.257C784.002 220.605 783.841 221.998 784.015 223.321C784.159 224.376 784.596 225.581 785.308 226.349C787.974 229.221 792.246 228.54 793.762 224.813C794.637 222.647 794.992 220.149 795.03 217.801C795.093 214.16 795.829 210.832 797.322 207.498C798.409 205.075 798.801 202.303 799.307 199.655C799.606 198.057 799.52 196.396 799.587 195.216C800.33 195.766 801.254 196.403 802.148 197.089C806.381 200.329 809.435 204.531 812.039 209.121C813.014 210.839 814.149 212.556 815.548 213.923C818.545 216.846 819.689 220.285 819.488 224.394C819.394 226.355 819.407 228.485 820.081 230.265C821.381 233.717 822.255 237.226 822.953 240.835C823.603 244.138 824.902 247.261 827.449 249.645C830.128 252.152 833.781 251.808 835.898 248.867ZM811.589 158.003C810.778 159.514 809.46 160.745 808.249 162.231C807.512 161.713 806.851 161.482 806.582 161.02C805.37 158.935 803.929 157.105 802.036 155.55C801.343 154.982 801.33 153.602 800.943 152.39C804.196 151.635 805.995 149.911 807.093 147.177C808.96 142.563 810.003 142.088 816.259 142.681C811.663 145.784 811.695 149.487 812.681 153.639C812.996 154.957 812.283 156.699 811.589 158.003Z" fill="#FF4ECD"/>
<path d="M836.822 173.658C834.425 174.288 833.42 175.956 833.894 178.341C834.443 181.113 836.123 182.681 838.926 182.431C841.374 182.213 843.365 183.087 845.527 183.905C848.78 185.141 851.265 188.188 855.33 187.696C855.074 188.501 855.012 189.044 854.756 189.468C853.119 192.259 852.514 195.25 852.414 198.465C852.364 199.927 851.646 201.482 850.878 202.787C849.848 204.548 849.518 206.308 850.048 208.194C850.466 209.698 850.947 211.228 851.709 212.577C852.614 214.181 852.664 215.493 851.883 217.228C850.216 220.975 849.767 224.872 851.834 228.724C852.164 229.348 852.426 230.122 852.396 230.809C852.165 235.292 852.527 239.956 851.397 244.203C849.817 250.11 849.679 255.974 849.817 261.924C849.88 264.647 850.441 267.369 852.14 269.616C853.769 271.764 855.799 271.583 857.154 269.266C857.467 268.735 857.634 268.112 857.822 267.511C858.739 264.527 859.645 261.536 860.526 258.527C860.994 256.928 861.593 255.337 861.793 253.7C862.631 246.657 863.43 239.601 864.073 232.539C864.428 228.618 865.052 224.872 867.407 221.587C867.937 220.845 868.412 219.908 868.481 219.027C868.706 216.017 869.124 212.964 867.987 210.016C867.463 208.668 867.525 207.381 868.243 206.108C870.391 202.281 870.597 198.184 870.073 193.938C869.83 192.002 869.86 190.023 869.766 188.069L870.529 187.513C871.615 188.019 872.908 188.293 873.751 189.068C877.341 192.371 881.712 192.709 886.089 192.034C888.512 191.654 890.329 192.028 892.183 193.427C894.581 195.243 897.334 196.181 900.351 196.299C904.59 196.448 906.208 194.994 906.401 190.892C907.257 190.274 908.163 189.731 908.949 189.05C911.103 187.17 911.303 184.848 909.287 182.78C908.301 181.762 907.008 180.888 905.683 180.389C903.942 179.733 902.056 179.376 900.201 179.133C898.872 178.959 897.873 178.509 896.992 177.479C895.275 175.45 892.983 174.526 890.343 174.482C888.364 174.451 886.378 174.475 884.354 174.475C881.688 170.804 880.871 170.542 875.907 171.204C873.778 171.478 871.593 172.016 869.106 170.929C869.613 169.318 869.944 167.676 870.63 166.214C872.691 161.819 874.082 157.216 874.944 152.484C875.882 147.333 876.881 142.232 879.315 137.523L879.502 136.924C880.046 133.309 880.152 129.831 877.049 127.102C874.576 124.935 874.52 124.367 876.162 121.532C877.842 118.635 879.671 115.819 881.195 112.846C882.082 111.117 882.849 109.187 883.049 107.283C883.436 103.456 880.813 101.264 876.967 101.876C873.526 102.425 871.466 104.636 870.098 107.677C869.119 109.856 868.057 111.998 867.013 114.164C864.341 119.709 861.526 125.185 860.738 131.448C860.458 133.69 859.596 135.869 858.841 138.029C857.674 141.407 856.718 144.829 856.781 148.432C856.818 150.892 856.281 153.178 855.188 155.388C853.714 158.385 853.321 161.508 853.983 164.848C854.726 168.595 853.564 169.925 849.831 169.943C847.795 169.949 845.842 170.136 844.218 171.504C842.788 172.709 841.127 173.158 839.304 173.265C838.471 173.314 837.627 173.446 836.822 173.658Z" fill="#FF4ECD"/>
<path d="M268.751 200.013C265.011 202.704 262.569 202.73 258.779 200.082C257.661 199.302 256.606 198.434 255.476 197.684C253.497 196.361 251.424 195.923 249.394 197.572C248.164 198.565 246.915 198.54 245.603 197.866C243.399 196.723 241.338 197.161 239.372 198.409C237.868 199.352 236.469 200.476 234.939 201.363C232.829 202.574 230.874 201.457 230.843 199.034C230.83 198.221 230.993 197.347 231.323 196.605C231.997 195.082 232.797 193.614 233.615 192.165C234.645 190.354 235.95 188.663 236.775 186.764C238.667 182.394 237.974 180.234 234.159 177.704C233.728 177.417 233.291 177.142 232.597 176.692C233.14 172.646 235.738 170.267 238.485 167.963C242.169 164.878 245.89 161.831 249.437 158.59C251.423 156.773 252.74 154.501 251.354 151.666C253.333 150.417 255.325 149.942 257.467 149.961C259.247 149.974 261.027 149.98 262.806 149.911C267.302 149.736 271.223 148.307 273.983 144.548C275.151 142.949 275.693 141.126 274.708 139.246C273.809 137.517 272.26 136.73 270.3 136.817C266.859 136.966 263.413 137.017 259.985 137.323C258.43 137.466 257.175 137.479 256.07 136.149C254.859 134.694 253.173 134.213 251.268 134.332C246.541 134.638 242.27 136.224 238.655 139.259C237.538 140.196 236.432 141.725 236.251 143.105C235.808 146.589 233.897 148.213 230.682 148.793L229.189 149.255C222.933 151.047 220.866 153.588 220.01 159.957C219.66 162.617 219.304 165.483 218.081 167.781C216.332 171.028 215.415 174.306 215.215 177.908C215.09 180.288 214.166 182.342 212.543 184.114C211.413 185.344 210.133 186.537 209.384 187.993C208.397 189.897 207.548 191.989 207.204 194.099C206.767 196.728 208.484 198.444 211.132 198.644C211.607 198.681 212.081 198.65 212.855 198.65C212.174 199.819 211.494 200.642 211.169 201.598C210.538 203.452 209.801 205.351 209.639 207.267C209.383 210.264 210.806 211.663 213.86 211.9C215.32 212.019 216.788 211.951 218.255 211.982C221.303 212.057 222.258 213.062 221.665 216.046C221.128 218.8 221.677 221.172 223.957 222.733C226.061 224.189 226.492 226.087 226.542 228.379C226.573 229.834 226.723 231.32 227.128 232.713C227.434 233.761 228.071 234.811 228.82 235.622C230.106 237.033 231.904 237.188 233.284 235.909C234.476 234.792 235.538 233.43 236.319 231.994C237.511 229.796 238.305 227.373 239.472 225.163C240.396 223.428 241.476 221.728 242.743 220.237C243.848 218.931 245.228 218.332 247.195 219.075C248.394 219.53 250.099 219.231 251.379 218.744C252.909 218.164 254.364 217.183 255.587 216.084C257.716 214.155 259.983 213.625 262.799 214.093C269.262 215.167 275.206 210.896 276.242 204.44C276.46 203.11 276.179 201.436 275.499 200.294C274.059 197.854 271.717 197.878 268.751 200.013Z" fill="#FF4ECD"/>
<path d="M768.95 182.836C766.658 180.07 766.096 177.423 767.638 174.2C768.618 172.128 769.63 170.023 770.236 167.825C771.741 162.43 771.629 157.11 768.918 152.009C768.351 150.941 768.082 149.648 767.957 148.431C767.67 145.84 766.783 143.685 764.86 141.794C761.463 138.447 757.804 135.656 753.239 134.051C746.958 131.853 741.127 132.584 736.268 137.06C733.146 139.939 730.736 143.579 727.956 146.832C727.095 147.837 726.158 148.868 725.06 149.567C720.196 152.658 716.406 156.535 715.456 162.48C714.894 165.958 713.677 168.973 711.322 171.752C708.3 175.323 708.056 180.692 710.654 184.022C714.082 188.423 714.7 193.281 714.002 198.551C713.727 200.618 713.596 202.703 713.358 205.221C713.626 207.093 713.708 209.423 714.338 211.595C715.067 214.117 717.079 215.441 719.308 214.873C721.912 214.198 723.723 215.403 725.69 216.634C727.257 217.62 728.88 218.544 730.579 219.281C731.578 219.719 732.283 220.18 732.808 221.211C734.487 224.501 736.547 225.6 740.257 224.883C743.104 224.327 745.826 223.235 748.823 223.796C749.485 223.921 750.335 223.665 750.933 223.31C753.98 221.504 757.465 220.099 759.888 217.658C764.208 213.306 768.154 208.499 771.739 203.504C773.88 200.519 775.461 196.997 774.462 192.901C773.514 189.012 771.385 185.79 768.95 182.836ZM746.089 193.463C747.638 196.666 747.538 196.717 747.227 199.869C745.296 200.057 743.268 200.251 741.463 200.413C739.958 198.078 738.628 195.986 737.274 193.913C736.125 192.177 734.701 190.815 732.453 190.922C730.805 190.997 730.236 190.023 729.968 188.675C729.682 187.244 729.445 185.796 729.151 184.366C728.321 180.35 729.263 176.835 732.336 174.113C735.339 171.452 736.544 168.399 735.864 164.353C735.326 161.156 737.587 159.251 740.302 157.921C739.834 159.932 739.322 161.936 738.929 163.959C738.116 168.068 739.828 171.077 743.144 173.338C743.924 173.868 744.78 174.275 745.554 174.812C747.546 176.185 747.951 177.347 747.19 179.651C746.834 180.738 746.323 181.78 745.885 182.848C744.429 186.415 744.367 189.917 746.089 193.463Z" fill="#FF4ECD"/>
<path d="M194.11 165.497C193.991 161.563 194.666 157.805 196.058 154.139C197.089 151.429 197.625 148.563 196.314 145.885C194.858 142.912 194.522 139.941 195.103 136.769V135.514C194.94 133.11 193.804 131.936 191.388 131.711C189.234 131.524 187.254 132.01 185.431 133.228C184.794 133.659 183.952 134.065 183.227 134.021C179.425 133.79 178.007 134.845 178.488 138.51C179 142.481 178.525 146.203 177.139 149.886C176.92 150.467 176.864 151.104 176.733 151.722C176.258 153.976 176.57 155.899 178.937 156.968C180.442 157.648 180.791 158.984 180.536 160.377C180.292 161.689 179.749 162.956 179.249 164.205C178.4 166.341 177.351 168.401 176.621 170.567C175.428 174.133 175.797 177.405 179.006 179.877C180.261 180.845 180.91 182.112 180.841 183.673C180.704 186.796 180.697 189.937 180.267 193.021C179.98 195.131 179.586 197.186 180.523 199.166C181.378 200.964 181.516 202.794 181.079 204.667C180.548 206.965 181.029 209.025 182.303 210.93C183.458 212.648 183.876 214.539 183.82 216.587C183.783 218.467 183.814 220.353 183.814 222.238H183.727C183.727 224.435 183.658 226.639 183.746 228.838C183.852 231.498 184.445 234.045 186.368 236.037C188.497 238.235 191.039 237.978 192.669 235.419C193.099 234.72 193.5 233.902 193.586 233.102C193.867 230.624 194.292 228.101 194.111 225.635C193.692 219.665 194.292 213.947 197.176 208.588C197.669 207.69 197.819 206.609 198.188 205.628C199.755 201.545 199.268 197.63 197.239 193.84L196.946 193.283C195.922 191.248 195.959 189.3 197.208 187.327C198.213 185.741 198.969 183.986 200.024 182.431C202.416 178.941 202.078 174.42 197.42 171.692C194.834 170.18 194.185 168.144 194.11 165.497Z" fill="#FF4ECD"/>
<path d="M182.059 120.39C184.507 122.388 187.36 123.113 190.288 122.051C193.31 120.958 194.765 118.423 195.002 115.233C195.32 110.95 195.932 106.754 196.962 102.564C198.067 98.0562 195.32 95.2642 190.287 95.9642C190.556 94.4532 190.83 93.2552 190.968 92.0372C191.406 88.4282 188.745 85.0692 185.586 85.4312C183.176 85.7062 180.934 86.5932 179.223 88.4912C177.312 90.6142 176.644 93.9292 178.212 96.3152C179.617 98.4262 179.205 100.117 178.137 102.097C177.044 104.114 176.008 106.206 175.34 108.379C174.446 111.333 174.821 114.217 177.282 116.428C178.825 117.805 180.46 119.084 182.059 120.39Z" fill="#FF4ECD"/>
</g>
<defs>
<filter id="filter0_d_1_3" x="0" y="0" width="1060" height="353.065" filterUnits="userSpaceOnUse" color-interpolation-filters="sRGB">
<feFlood flood-opacity="0" result="BackgroundImageFix"/>
<feColorMatrix in="SourceAlpha" type="matrix" values="0 0 0 0 0 0 0 0 0 0 0 0 0 0 0 0 0 0 127 0" result="hardAlpha"/>
<feOffset dx="2" dy="6"/>
<feGaussianBlur stdDeviation="15"/>
<feComposite in2="hardAlpha" operator="out"/>
<feColorMatrix type="matrix" values="0 0 0 0 1 0 0 0 0 0.305882 0 0 0 0 0.803922 0 0 0 0.5 0"/>
<feBlend mode="normal" in2="BackgroundImageFix" result="effect1_dropShadow_1_3"/>
<feBlend mode="normal" in="SourceGraphic" in2="effect1_dropShadow_1_3" result="shape"/>
</filter>
</defs>
</svg>
